<svg xmlns="http://www.w3.org/2000/svg" version="1.1" width="8.91in" height="4.71in" viewBox = " 0 0 801.9 423.9" >
<!-- Front--> 
<g transform="translate(22.5, 22.5) " > 
<polygon style="stroke:#000000; fill:none; stroke-width:0.9" points="0, 0 28.417322834999993, 0 28.417322834999993, 8.37 53.999999999999986, 8.37 53.999999999999986, 0 73.41732283499998, 0 73.41732283499998, 8.37 89.99999999999999, 8.37 89.99999999999999, 0 109.41732283499998, 0 109.41732283499998, 8.37 125.99999999999999, 8.37 125.99999999999999, 0 145.417322835, 0 145.417322835, 8.37 162, 8.37 162, 0 181.417322835, 0 181.417322835, 8.37 206.99999999999997, 8.37 206.99999999999997, 0 235.417322835, 0 235.417322835, 19.417322835 227.047322835, 19.417322835 227.047322835, 36 235.417322835, 36 235.417322835, 55.417322835 227.047322835, 55.417322835 227.047322835, 72 235.417322835, 72 235.41732283499996, 91.41732283500001 206.99999999999997, 91.41732283500001 206.99999999999997, 83.047322835 181.417322835, 83.047322835 181.417322835, 91.41732283500001 162, 91.41732283500001 162, 83.047322835 145.417322835, 83.047322835 145.417322835, 91.41732283500001 125.99999999999999, 91.41732283500001 125.99999999999999, 83.047322835 109.41732283499998, 83.047322835 109.41732283499998, 91.41732283500001 89.99999999999999, 91.41732283500001 89.99999999999999, 83.047322835 73.41732283499998, 83.047322835 73.41732283499998, 91.41732283500001 53.999999999999986, 91.41732283500001 53.999999999999986, 83.047322835 28.417322834999993, 83.047322835 28.417322834999993, 91.41732283500001 0, 91.417322835 0, 72 8.37, 72 8.37, 55.417322835 0, 55.417322835 0, 36 8.37, 36 8.37, 19.417322835 0, 19.417322835 "/> 
</g>
<!-- Back--> 
<g transform="translate(257.917322835, 22.5) " > 
<polygon style="stroke:#000000; fill:none; stroke-width:0.9" points="0, 0 28.417322834999993, 0 28.417322834999993, 8.37 53.999999999999986, 8.37 53.999999999999986, 0 73.41732283499998, 0 73.41732283499998, 8.37 89.99999999999999, 8.37 89.99999999999999, 0 109.41732283499998, 0 109.41732283499998, 8.37 125.99999999999999, 8.37 125.99999999999999, 0 145.417322835, 0 145.417322835, 8.37 162, 8.37 162, 0 181.417322835, 0 181.417322835, 8.37 206.99999999999997, 8.37 206.99999999999997, 0 235.417322835, 0 235.417322835, 19.417322835 227.047322835, 19.417322835 227.047322835, 36 235.417322835, 36 235.417322835, 55.417322835 227.047322835, 55.417322835 227.047322835, 72 235.417322835, 72 235.41732283499996, 91.41732283500001 206.99999999999997, 91.41732283500001 206.99999999999997, 83.047322835 181.417322835, 83.047322835 181.417322835, 91.41732283500001 162, 91.41732283500001 162, 83.047322835 145.417322835, 83.047322835 145.417322835, 91.41732283500001 125.99999999999999, 91.41732283500001 125.99999999999999, 83.047322835 109.41732283499998, 83.047322835 109.41732283499998, 91.41732283500001 89.99999999999999, 91.41732283500001 89.99999999999999, 83.047322835 73.41732283499998, 83.047322835 73.41732283499998, 91.41732283500001 53.999999999999986, 91.41732283500001 53.999999999999986, 83.047322835 28.417322834999993, 83.047322835 28.417322834999993, 91.41732283500001 0, 91.417322835 0, 72 8.37, 72 8.37, 55.417322835 0, 55.417322835 0, 36 8.37, 36 8.37, 19.417322835 0, 19.417322835 "/> 
</g>
<!-- Left--> 
<g transform="translate(493.33464567, 22.5) " > 
<polygon style="stroke:#000000; fill:none; stroke-width:0.9" points="8.37, 0 24.142322834999995, 0 24.142322834999995, 8.37 45.44999999999999, 8.37 45.44999999999999, 0 64.86732283499998, 0 64.86732283499998, 8.37 81.44999999999999, 8.37 81.44999999999999, 0 100.86732283499998, 0 100.86732283499998, 8.37 117.44999999999999, 8.37 117.44999999999999, 0 136.86732283499998, 0 136.86732283499998, 8.37 153.45, 8.37 153.45, 0 172.86732283499998, 0 172.86732283499998, 8.37 189.45, 8.37 189.45, 0 208.86732283499998, 0 208.86732283499998, 8.37 225.45, 8.37 225.45, 0 244.86732283499998, 0 244.86732283499998, 8.37 266.17499999999995, 8.37 266.17499999999995, 0 281.94732283499997, 0 281.94732283499997, 18 290.31732283499997, 18 290.31732283499997, 37.417322835 281.94732283499997, 37.417322835 281.94732283499997, 54 290.31732283499997, 54 290.31732283499997, 73.417322835 281.94732283499997, 73.417322835 281.94732283499997, 91.41732283500001 266.17499999999995, 91.41732283500001 266.17499999999995, 83.047322835 244.86732283499998, 83.047322835 244.86732283499998, 91.41732283500001 225.45, 91.41732283500001 225.45, 83.047322835 208.86732283499998, 83.047322835 208.86732283499998, 91.41732283500001 189.45, 91.41732283500001 189.45, 83.047322835 172.86732283499998, 83.047322835 172.86732283499998, 91.41732283500001 153.45, 91.41732283500001 153.45, 83.047322835 136.86732283499998, 83.047322835 136.86732283499998, 91.41732283500001 117.44999999999999, 91.41732283500001 117.44999999999999, 83.047322835 100.86732283499998, 83.047322835 100.86732283499998, 91.41732283500001 81.44999999999999, 91.41732283500001 81.44999999999999, 83.047322835 64.86732283499998, 83.047322835 64.86732283499998, 91.41732283500001 45.44999999999999, 91.41732283500001 45.44999999999999, 83.047322835 24.142322834999995, 83.047322835 24.142322834999995, 91.41732283500001 8.37, 91.417322835 8.37, 73.417322835 0, 73.417322835 0, 54 8.37, 54 8.37, 37.417322835 0, 37.417322835 0, 18 8.37, 18 "/> 
</g>
<!-- Right--> 
<g transform="translate(493.33464567, 113.91732283500001) " > 
<polygon style="stroke:#000000; fill:none; stroke-width:0.9" points="8.37, 0 24.142322834999995, 0 24.142322834999995, 8.37 45.44999999999999, 8.37 45.44999999999999, 0 64.86732283499998, 0 64.86732283499998, 8.37 81.44999999999999, 8.37 81.44999999999999, 0 100.86732283499998, 0 100.86732283499998, 8.37 117.44999999999999, 8.37 117.44999999999999, 0 136.86732283499998, 0 136.86732283499998, 8.37 153.45, 8.37 153.45, 0 172.86732283499998, 0 172.86732283499998, 8.37 189.45, 8.37 189.45, 0 208.86732283499998, 0 208.86732283499998, 8.37 225.45, 8.37 225.45, 0 244.86732283499998, 0 244.86732283499998, 8.37 266.17499999999995, 8.37 266.17499999999995, 0 281.94732283499997, 0 281.94732283499997, 18 290.31732283499997, 18 290.31732283499997, 37.417322835 281.94732283499997, 37.417322835 281.94732283499997, 54 290.31732283499997, 54 290.31732283499997, 73.417322835 281.94732283499997, 73.417322835 281.94732283499997, 91.41732283500001 266.17499999999995, 91.41732283500001 266.17499999999995, 83.047322835 244.86732283499998, 83.047322835 244.86732283499998, 91.41732283500001 225.45, 91.41732283500001 225.45, 83.047322835 208.86732283499998, 83.047322835 208.86732283499998, 91.41732283500001 189.45, 91.41732283500001 189.45, 83.047322835 172.86732283499998, 83.047322835 172.86732283499998, 91.41732283500001 153.45, 91.41732283500001 153.45, 83.047322835 136.86732283499998, 83.047322835 136.86732283499998, 91.41732283500001 117.44999999999999, 91.41732283500001 117.44999999999999, 83.047322835 100.86732283499998, 83.047322835 100.86732283499998, 91.41732283500001 81.44999999999999, 91.41732283500001 81.44999999999999, 83.047322835 64.86732283499998, 83.047322835 64.86732283499998, 91.41732283500001 45.44999999999999, 91.41732283500001 45.44999999999999, 83.047322835 24.142322834999995, 83.047322835 24.142322834999995, 91.41732283500001 8.37, 91.417322835 8.37, 73.417322835 0, 73.417322835 0, 54 8.37, 54 8.37, 37.417322835 0, 37.417322835 0, 18 8.37, 18 "/> 
</g>
<!-- Top--> 
<g transform="translate(22.5, 113.91732283500001) " > 
<polygon style="stroke:#000000; fill:none; stroke-width:0.9" points="8.37, 8.37 26.999999999999993, 8.37 26.999999999999993, 0 55.417322834999986, 0 55.417322834999986, 8.37 71.99999999999999, 8.37 71.99999999999999, 0 91.41732283499998, 0 91.41732283499998, 8.37 107.99999999999999, 8.37 107.99999999999999, 0 127.41732283499998, 0 127.41732283499998, 8.37 144, 8.37 144, 0 163.417322835, 0 163.417322835, 8.37 180, 8.37 180, 0 208.41732283499996, 0 208.41732283499996, 8.37 227.047322835, 8.37 227.047322835, 22.724999999999994 235.417322835, 22.724999999999994 235.417322835, 46.86732283499999 227.047322835, 46.86732283499999 227.047322835, 63.44999999999999 235.417322835, 63.44999999999999 235.417322835, 82.86732283499998 227.047322835, 82.86732283499998 227.047322835, 99.44999999999999 235.417322835, 99.44999999999999 235.417322835, 118.86732283499998 227.047322835, 118.86732283499998 227.047322835, 135.45 235.417322835, 135.45 235.417322835, 154.86732283499998 227.047322835, 154.86732283499998 227.047322835, 171.45 235.417322835, 171.45 235.417322835, 190.86732283499998 227.047322835, 190.86732283499998 227.047322835, 207.45 235.417322835, 207.45 235.417322835, 226.86732283499998 227.047322835, 226.86732283499998 227.047322835, 243.45 235.417322835, 243.45 235.417322835, 267.59232283499995 227.047322835, 267.59232283499995 227.04732283499996, 281.94732283499997 208.41732283499996, 281.94732283499997 208.41732283499996, 290.31732283499997 180, 290.31732283499997 180, 281.94732283499997 163.417322835, 281.94732283499997 163.417322835, 290.31732283499997 144, 290.31732283499997 144, 281.94732283499997 127.41732283499998, 281.94732283499997 127.41732283499998, 290.31732283499997 107.99999999999999, 290.31732283499997 107.99999999999999, 281.94732283499997 91.41732283499998, 281.94732283499997 91.41732283499998, 290.31732283499997 71.99999999999999, 290.31732283499997 71.99999999999999, 281.94732283499997 55.417322834999986, 281.94732283499997 55.417322834999986, 290.31732283499997 26.999999999999993, 290.31732283499997 26.999999999999993, 281.94732283499997 8.37, 281.94732283499997 8.37, 267.59232283499995 0, 267.59232283499995 0, 243.45 8.37, 243.45 8.37, 226.86732283499998 0, 226.86732283499998 0, 207.45 8.37, 207.45 8.37, 190.86732283499998 0, 190.86732283499998 0, 171.45 8.37, 171.45 8.37, 154.86732283499998 0, 154.86732283499998 0, 135.45 8.37, 135.45 8.37, 118.86732283499998 0, 118.86732283499998 0, 99.44999999999999 8.37, 99.44999999999999 8.37, 82.86732283499998 0, 82.86732283499998 0, 63.44999999999999 8.37, 63.44999999999999 8.37, 46.86732283499999 0, 46.86732283499999 0, 22.724999999999994 8.37, 22.724999999999994 "/> 
</g>
<!-- Bottom--> 
<g transform="translate(257.917322835, 113.91732283500001) " > 
<polygon style="stroke:#000000; fill:none; stroke-width:0.9" points="8.37, 8.37 26.999999999999993, 8.37 26.999999999999993, 0 55.417322834999986, 0 55.417322834999986, 8.37 71.99999999999999, 8.37 71.99999999999999, 0 91.41732283499998, 0 91.41732283499998, 8.37 107.99999999999999, 8.37 107.99999999999999, 0 127.41732283499998, 0 127.41732283499998, 8.37 144, 8.37 144, 0 163.417322835, 0 163.417322835, 8.37 180, 8.37 180, 0 208.41732283499996, 0 208.41732283499996, 8.37 227.047322835, 8.37 227.047322835, 22.724999999999994 235.417322835, 22.724999999999994 235.417322835, 46.86732283499999 227.047322835, 46.86732283499999 227.047322835, 63.44999999999999 235.417322835, 63.44999999999999 235.417322835, 82.86732283499998 227.047322835, 82.86732283499998 227.047322835, 99.44999999999999 235.417322835, 99.44999999999999 235.417322835, 118.86732283499998 227.047322835, 118.86732283499998 227.047322835, 135.45 235.417322835, 135.45 235.417322835, 154.86732283499998 227.047322835, 154.86732283499998 227.047322835, 171.45 235.417322835, 171.45 235.417322835, 190.86732283499998 227.047322835, 190.86732283499998 227.047322835, 207.45 235.417322835, 207.45 235.417322835, 226.86732283499998 227.047322835, 226.86732283499998 227.047322835, 243.45 235.417322835, 243.45 235.417322835, 267.59232283499995 227.047322835, 267.59232283499995 227.04732283499996, 281.94732283499997 208.41732283499996, 281.94732283499997 208.41732283499996, 290.31732283499997 180, 290.31732283499997 180, 281.94732283499997 163.417322835, 281.94732283499997 163.417322835, 290.31732283499997 144, 290.31732283499997 144, 281.94732283499997 127.41732283499998, 281.94732283499997 127.41732283499998, 290.31732283499997 107.99999999999999, 290.31732283499997 107.99999999999999, 281.94732283499997 91.41732283499998, 281.94732283499997 91.41732283499998, 290.31732283499997 71.99999999999999, 290.31732283499997 71.99999999999999, 281.94732283499997 55.417322834999986, 281.94732283499997 55.417322834999986, 290.31732283499997 26.999999999999993, 290.31732283499997 26.999999999999993, 281.94732283499997 8.37, 281.94732283499997 8.37, 267.59232283499995 0, 267.59232283499995 0, 243.45 8.37, 243.45 8.37, 226.86732283499998 0, 226.86732283499998 0, 207.45 8.37, 207.45 8.37, 190.86732283499998 0, 190.86732283499998 0, 171.45 8.37, 171.45 8.37, 154.86732283499998 0, 154.86732283499998 0, 135.45 8.37, 135.45 8.37, 118.86732283499998 0, 118.86732283499998 0, 99.44999999999999 8.37, 99.44999999999999 8.37, 82.86732283499998 0, 82.86732283499998 0, 63.44999999999999 8.37, 63.44999999999999 8.37, 46.86732283499999 0, 46.86732283499999 0, 22.724999999999994 8.37, 22.724999999999994 "/> 
</g></svg>