<svg xmlns="http://www.w3.org/2000/svg" version="1.1" width="9.14in" height="4.9399999999999995in" viewBox = " 0 0 822.6 444.59999999999997" >
<!-- Front--> 
<g transform="translate(22.5, 22.5) " > 
<polygon style="stroke:#000000; fill:none; stroke-width:0.9" points="0, 0 28.417322834999993, 0 28.417322834999993, 8.37 53.999999999999986, 8.37 53.999999999999986, 0 73.41732283499998, 0 73.41732283499998, 8.37 89.99999999999999, 8.37 89.99999999999999, 0 109.41732283499998, 0 109.41732283499998, 8.37 125.99999999999999, 8.37 125.99999999999999, 0 145.417322835, 0 145.417322835, 8.37 162, 8.37 162, 0 181.417322835, 0 181.417322835, 8.37 206.99999999999997, 8.37 206.99999999999997, 0 235.417322835, 0 235.417322835, 19.417322835 227.047322835, 19.417322835 227.047322835, 36 235.417322835, 36 235.417322835, 55.417322835 227.047322835, 55.417322835 227.047322835, 72 235.417322835, 72 235.41732283499996, 91.41732283500001 206.99999999999997, 91.41732283500001 206.99999999999997, 83.047322835 181.417322835, 83.047322835 181.417322835, 91.41732283500001 162, 91.41732283500001 162, 83.047322835 145.417322835, 83.047322835 145.417322835, 91.41732283500001 125.99999999999999, 91.41732283500001 125.99999999999999, 83.047322835 109.41732283499998, 83.047322835 109.41732283499998, 91.41732283500001 89.99999999999999, 91.41732283500001 89.99999999999999, 83.047322835 73.41732283499998, 83.047322835 73.41732283499998, 91.41732283500001 53.999999999999986, 91.41732283500001 53.999999999999986, 83.047322835 28.417322834999993, 83.047322835 28.417322834999993, 91.41732283500001 0, 91.417322835 0, 72 8.37, 72 8.37, 55.417322835 0, 55.417322835 0, 36 8.37, 36 8.37, 19.417322835 0, 19.417322835 "/> 
</g>
<!-- Back--> 
<g transform="translate(257.917322835, 22.5) " > 
<polygon style="stroke:#000000; fill:none; stroke-width:0.9" points="0, 0 28.417322834999993, 0 28.417322834999993, 8.37 53.999999999999986, 8.37 53.999999999999986, 0 73.41732283499998, 0 73.41732283499998, 8.37 89.99999999999999, 8.37 89.99999999999999, 0 109.41732283499998, 0 109.41732283499998, 8.37 125.99999999999999, 8.37 125.99999999999999, 0 145.417322835, 0 145.417322835, 8.37 162, 8.37 162, 0 181.417322835, 0 181.417322835, 8.37 206.99999999999997, 8.37 206.99999999999997, 0 235.417322835, 0 235.417322835, 19.417322835 227.047322835, 19.417322835 227.047322835, 36 235.417322835, 36 235.417322835, 55.417322835 227.047322835, 55.417322835 227.047322835, 72 235.417322835, 72 235.41732283499996, 91.41732283500001 206.99999999999997, 91.41732283500001 206.99999999999997, 83.047322835 181.417322835, 83.047322835 181.417322835, 91.41732283500001 162, 91.41732283500001 162, 83.047322835 145.417322835, 83.047322835 145.417322835, 91.41732283500001 125.99999999999999, 91.41732283500001 125.99999999999999, 83.047322835 109.41732283499998, 83.047322835 109.41732283499998, 91.41732283500001 89.99999999999999, 91.41732283500001 89.99999999999999, 83.047322835 73.41732283499998, 83.047322835 73.41732283499998, 91.41732283500001 53.999999999999986, 91.41732283500001 53.999999999999986, 83.047322835 28.417322834999993, 83.047322835 28.417322834999993, 91.41732283500001 0, 91.417322835 0, 72 8.37, 72 8.37, 55.417322835 0, 55.417322835 0, 36 8.37, 36 8.37, 19.417322835 0, 19.417322835 "/> 
</g>
<!-- Left--> 
<g transform="translate(493.33464567, 22.5) " > 
<polygon style="stroke:#000000; fill:none; stroke-width:0.9" points="8.37, 0 29.317322834999995, 0 29.317322834999995, 8.37 55.79999999999999, 8.37 55.79999999999999, 0 75.21732283499998, 0 75.21732283499998, 8.37 91.79999999999998, 8.37 91.79999999999998, 0 111.21732283499998, 0 111.21732283499998, 8.37 127.79999999999998, 8.37 127.79999999999998, 0 147.21732283499998, 0 147.21732283499998, 8.37 163.79999999999998, 8.37 163.79999999999998, 0 183.21732283499998, 0 183.21732283499998, 8.37 199.79999999999998, 8.37 199.79999999999998, 0 219.21732283499998, 0 219.21732283499998, 8.37 235.79999999999998, 8.37 235.79999999999998, 0 255.21732283499998, 0 255.21732283499998, 8.37 281.7, 8.37 281.7, 0 302.64732283499995, 0 302.64732283499995, 18 311.01732283499996, 18 311.01732283499996, 37.417322835 302.64732283499995, 37.417322835 302.64732283499995, 54 311.01732283499996, 54 311.01732283499996, 73.417322835 302.64732283499995, 73.417322835 302.64732283499995, 91.41732283500001 281.7, 91.41732283500001 281.7, 83.047322835 255.21732283499998, 83.047322835 255.21732283499998, 91.41732283500001 235.79999999999998, 91.41732283500001 235.79999999999998, 83.047322835 219.21732283499998, 83.047322835 219.21732283499998, 91.41732283500001 199.79999999999998, 91.41732283500001 199.79999999999998, 83.047322835 183.21732283499998, 83.047322835 183.21732283499998, 91.41732283500001 163.79999999999998, 91.41732283500001 163.79999999999998, 83.047322835 147.21732283499998, 83.047322835 147.21732283499998, 91.41732283500001 127.79999999999998, 91.41732283500001 127.79999999999998, 83.047322835 111.21732283499998, 83.047322835 111.21732283499998, 91.41732283500001 91.79999999999998, 91.41732283500001 91.79999999999998, 83.047322835 75.21732283499998, 83.047322835 75.21732283499998, 91.41732283500001 55.79999999999999, 91.41732283500001 55.79999999999999, 83.047322835 29.317322834999995, 83.047322835 29.317322834999995, 91.41732283500001 8.37, 91.417322835 8.37, 73.417322835 0, 73.417322835 0, 54 8.37, 54 8.37, 37.417322835 0, 37.417322835 0, 18 8.37, 18 "/> 
</g>
<!-- Right--> 
<g transform="translate(493.33464567, 113.91732283500001) " > 
<polygon style="stroke:#000000; fill:none; stroke-width:0.9" points="8.37, 0 29.317322834999995, 0 29.317322834999995, 8.37 55.79999999999999, 8.37 55.79999999999999, 0 75.21732283499998, 0 75.21732283499998, 8.37 91.79999999999998, 8.37 91.79999999999998, 0 111.21732283499998, 0 111.21732283499998, 8.37 127.79999999999998, 8.37 127.79999999999998, 0 147.21732283499998, 0 147.21732283499998, 8.37 163.79999999999998, 8.37 163.79999999999998, 0 183.21732283499998, 0 183.21732283499998, 8.37 199.79999999999998, 8.37 199.79999999999998, 0 219.21732283499998, 0 219.21732283499998, 8.37 235.79999999999998, 8.37 235.79999999999998, 0 255.21732283499998, 0 255.21732283499998, 8.37 281.7, 8.37 281.7, 0 302.64732283499995, 0 302.64732283499995, 18 311.01732283499996, 18 311.01732283499996, 37.417322835 302.64732283499995, 37.417322835 302.64732283499995, 54 311.01732283499996, 54 311.01732283499996, 73.417322835 302.64732283499995, 73.417322835 302.64732283499995, 91.41732283500001 281.7, 91.41732283500001 281.7, 83.047322835 255.21732283499998, 83.047322835 255.21732283499998, 91.41732283500001 235.79999999999998, 91.41732283500001 235.79999999999998, 83.047322835 219.21732283499998, 83.047322835 219.21732283499998, 91.41732283500001 199.79999999999998, 91.41732283500001 199.79999999999998, 83.047322835 183.21732283499998, 83.047322835 183.21732283499998, 91.41732283500001 163.79999999999998, 91.41732283500001 163.79999999999998, 83.047322835 147.21732283499998, 83.047322835 147.21732283499998, 91.41732283500001 127.79999999999998, 91.41732283500001 127.79999999999998, 83.047322835 111.21732283499998, 83.047322835 111.21732283499998, 91.41732283500001 91.79999999999998, 91.41732283500001 91.79999999999998, 83.047322835 75.21732283499998, 83.047322835 75.21732283499998, 91.41732283500001 55.79999999999999, 91.41732283500001 55.79999999999999, 83.047322835 29.317322834999995, 83.047322835 29.317322834999995, 91.41732283500001 8.37, 91.417322835 8.37, 73.417322835 0, 73.417322835 0, 54 8.37, 54 8.37, 37.417322835 0, 37.417322835 0, 18 8.37, 18 "/> 
</g>
<!-- Top--> 
<g transform="translate(22.5, 113.91732283500001) " > 
<polygon style="stroke:#000000; fill:none; stroke-width:0.9" points="8.37, 8.37 26.999999999999993, 8.37 26.999999999999993, 0 55.417322834999986, 0 55.417322834999986, 8.37 71.99999999999999, 8.37 71.99999999999999, 0 91.41732283499998, 0 91.41732283499998, 8.37 107.99999999999999, 8.37 107.99999999999999, 0 127.41732283499998, 0 127.41732283499998, 8.37 144, 8.37 144, 0 163.417322835, 0 163.417322835, 8.37 180, 8.37 180, 0 208.41732283499996, 0 208.41732283499996, 8.37 227.047322835, 8.37 227.047322835, 27.899999999999995 235.417322835, 27.899999999999995 235.417322835, 57.21732283499999 227.047322835, 57.21732283499999 227.047322835, 73.79999999999998 235.417322835, 73.79999999999998 235.417322835, 93.21732283499998 227.047322835, 93.21732283499998 227.047322835, 109.79999999999998 235.417322835, 109.79999999999998 235.417322835, 129.21732283499998 227.047322835, 129.21732283499998 227.047322835, 145.79999999999998 235.417322835, 145.79999999999998 235.417322835, 165.21732283499998 227.047322835, 165.21732283499998 227.047322835, 181.79999999999998 235.417322835, 181.79999999999998 235.417322835, 201.21732283499998 227.047322835, 201.21732283499998 227.047322835, 217.79999999999998 235.417322835, 217.79999999999998 235.417322835, 237.21732283499998 227.047322835, 237.21732283499998 227.047322835, 253.79999999999998 235.417322835, 253.79999999999998 235.417322835, 283.117322835 227.047322835, 283.117322835 227.04732283499996, 302.64732283499995 208.41732283499996, 302.64732283499995 208.41732283499996, 311.01732283499996 180, 311.01732283499996 180, 302.64732283499995 163.417322835, 302.64732283499995 163.417322835, 311.01732283499996 144, 311.01732283499996 144, 302.64732283499995 127.41732283499998, 302.64732283499995 127.41732283499998, 311.01732283499996 107.99999999999999, 311.01732283499996 107.99999999999999, 302.64732283499995 91.41732283499998, 302.64732283499995 91.41732283499998, 311.01732283499996 71.99999999999999, 311.01732283499996 71.99999999999999, 302.64732283499995 55.417322834999986, 302.64732283499995 55.417322834999986, 311.01732283499996 26.999999999999993, 311.01732283499996 26.999999999999993, 302.64732283499995 8.37, 302.64732283499995 8.37, 283.117322835 0, 283.117322835 0, 253.79999999999998 8.37, 253.79999999999998 8.37, 237.21732283499998 0, 237.21732283499998 0, 217.79999999999998 8.37, 217.79999999999998 8.37, 201.21732283499998 0, 201.21732283499998 0, 181.79999999999998 8.37, 181.79999999999998 8.37, 165.21732283499998 0, 165.21732283499998 0, 145.79999999999998 8.37, 145.79999999999998 8.37, 129.21732283499998 0, 129.21732283499998 0, 109.79999999999998 8.37, 109.79999999999998 8.37, 93.21732283499998 0, 93.21732283499998 0, 73.79999999999998 8.37, 73.79999999999998 8.37, 57.21732283499999 0, 57.21732283499999 0, 27.899999999999995 8.37, 27.899999999999995 "/> 
</g>
<!-- Bottom--> 
<g transform="translate(257.917322835, 113.91732283500001) " > 
<polygon style="stroke:#000000; fill:none; stroke-width:0.9" points="8.37, 8.37 26.999999999999993, 8.37 26.999999999999993, 0 55.417322834999986, 0 55.417322834999986, 8.37 71.99999999999999, 8.37 71.99999999999999, 0 91.41732283499998, 0 91.41732283499998, 8.37 107.99999999999999, 8.37 107.99999999999999, 0 127.41732283499998, 0 127.41732283499998, 8.37 144, 8.37 144, 0 163.417322835, 0 163.417322835, 8.37 180, 8.37 180, 0 208.41732283499996, 0 208.41732283499996, 8.37 227.047322835, 8.37 227.047322835, 27.899999999999995 235.417322835, 27.899999999999995 235.417322835, 57.21732283499999 227.047322835, 57.21732283499999 227.047322835, 73.79999999999998 235.417322835, 73.79999999999998 235.417322835, 93.21732283499998 227.047322835, 93.21732283499998 227.047322835, 109.79999999999998 235.417322835, 109.79999999999998 235.417322835, 129.21732283499998 227.047322835, 129.21732283499998 227.047322835, 145.79999999999998 235.417322835, 145.79999999999998 235.417322835, 165.21732283499998 227.047322835, 165.21732283499998 227.047322835, 181.79999999999998 235.417322835, 181.79999999999998 235.417322835, 201.21732283499998 227.047322835, 201.21732283499998 227.047322835, 217.79999999999998 235.417322835, 217.79999999999998 235.417322835, 237.21732283499998 227.047322835, 237.21732283499998 227.047322835, 253.79999999999998 235.417322835, 253.79999999999998 235.417322835, 283.117322835 227.047322835, 283.117322835 227.04732283499996, 302.64732283499995 208.41732283499996, 302.64732283499995 208.41732283499996, 311.01732283499996 180, 311.01732283499996 180, 302.64732283499995 163.417322835, 302.64732283499995 163.417322835, 311.01732283499996 144, 311.01732283499996 144, 302.64732283499995 127.41732283499998, 302.64732283499995 127.41732283499998, 311.01732283499996 107.99999999999999, 311.01732283499996 107.99999999999999, 302.64732283499995 91.41732283499998, 302.64732283499995 91.41732283499998, 311.01732283499996 71.99999999999999, 311.01732283499996 71.99999999999999, 302.64732283499995 55.417322834999986, 302.64732283499995 55.417322834999986, 311.01732283499996 26.999999999999993, 311.01732283499996 26.999999999999993, 302.64732283499995 8.37, 302.64732283499995 8.37, 283.117322835 0, 283.117322835 0, 253.79999999999998 8.37, 253.79999999999998 8.37, 237.21732283499998 0, 237.21732283499998 0, 217.79999999999998 8.37, 217.79999999999998 8.37, 201.21732283499998 0, 201.21732283499998 0, 181.79999999999998 8.37, 181.79999999999998 8.37, 165.21732283499998 0, 165.21732283499998 0, 145.79999999999998 8.37, 145.79999999999998 8.37, 129.21732283499998 0, 129.21732283499998 0, 109.79999999999998 8.37, 109.79999999999998 8.37, 93.21732283499998 0, 93.21732283499998 0, 73.79999999999998 8.37, 73.79999999999998 8.37, 57.21732283499999 0, 57.21732283499999 0, 27.899999999999995 8.37, 27.899999999999995 "/> 
</g></svg>