<?xml version="1.0" encoding="UTF-8" standalone="no"?>
<svg
   xmlns:dc="http://purl.org/dc/elements/1.1/"
   xmlns:cc="http://creativecommons.org/ns#"
   xmlns:rdf="http://www.w3.org/1999/02/22-rdf-syntax-ns#"
   xmlns:svg="http://www.w3.org/2000/svg"
   xmlns="http://www.w3.org/2000/svg"
   xmlns:sodipodi="http://sodipodi.sourceforge.net/DTD/sodipodi-0.dtd"
   xmlns:inkscape="http://www.inkscape.org/namespaces/inkscape"
   version="1.1"
   width="9.14in"
   height="4.9399999999999995in"
   viewBox=" 0 0 822.6 444.59999999999997"
   id="svg26"
   sodipodi:docname="caseplans_final_compact.svg"
   inkscape:version="0.92.0 r15299">
  <metadata
     id="metadata32">
    <rdf:RDF>
      <cc:Work
         rdf:about="">
        <dc:format>image/svg+xml</dc:format>
        <dc:type
           rdf:resource="http://purl.org/dc/dcmitype/StillImage" />
        <dc:title></dc:title>
      </cc:Work>
    </rdf:RDF>
  </metadata>
  <defs
     id="defs30" />
  <sodipodi:namedview
     pagecolor="#ffffff"
     bordercolor="#666666"
     borderopacity="1"
     objecttolerance="10"
     gridtolerance="10"
     guidetolerance="10"
     inkscape:pageopacity="0"
     inkscape:pageshadow="2"
     inkscape:window-width="1920"
     inkscape:window-height="1017"
     id="namedview28"
     showgrid="false"
     showguides="true"
     inkscape:guide-bbox="true"
     inkscape:snap-midpoints="true"
     inkscape:zoom="1.8502885"
     inkscape:cx="402.4809"
     inkscape:cy="295.16587"
     inkscape:window-x="-8"
     inkscape:window-y="-8"
     inkscape:window-maximized="1"
     inkscape:current-layer="svg26"
     inkscape:snap-object-midpoints="true"
     inkscape:object-paths="true">
    <sodipodi:guide
       position="22.499999,422.10001"
       orientation="0,1"
       id="guide34"
       inkscape:locked="false" />
  </sodipodi:namedview>
  <!-- Front-->
  <g
     transform="translate(22.5, 22.5) "
     id="g4">
    <polygon
       style="stroke:#000000; fill:none; stroke-width:0.9"
       points="0, 0 28.417322834999993, 0 28.417322834999993, 8.37 53.999999999999986, 8.37 53.999999999999986, 0 73.41732283499998, 0 73.41732283499998, 8.37 89.99999999999999, 8.37 89.99999999999999, 0 109.41732283499998, 0 109.41732283499998, 8.37 125.99999999999999, 8.37 125.99999999999999, 0 145.417322835, 0 145.417322835, 8.37 162, 8.37 162, 0 181.417322835, 0 181.417322835, 8.37 206.99999999999997, 8.37 206.99999999999997, 0 235.417322835, 0 235.417322835, 19.417322835 227.047322835, 19.417322835 227.047322835, 36 235.417322835, 36 235.417322835, 55.417322835 227.047322835, 55.417322835 227.047322835, 72 235.417322835, 72 235.41732283499996, 91.41732283500001 206.99999999999997, 91.41732283500001 206.99999999999997, 83.047322835 181.417322835, 83.047322835 181.417322835, 91.41732283500001 162, 91.41732283500001 162, 83.047322835 145.417322835, 83.047322835 145.417322835, 91.41732283500001 125.99999999999999, 91.41732283500001 125.99999999999999, 83.047322835 109.41732283499998, 83.047322835 109.41732283499998, 91.41732283500001 89.99999999999999, 91.41732283500001 89.99999999999999, 83.047322835 73.41732283499998, 83.047322835 73.41732283499998, 91.41732283500001 53.999999999999986, 91.41732283500001 53.999999999999986, 83.047322835 28.417322834999993, 83.047322835 28.417322834999993, 91.41732283500001 0, 91.417322835 0, 72 8.37, 72 8.37, 55.417322835 0, 55.417322835 0, 36 8.37, 36 8.37, 19.417322835 0, 19.417322835 "
       id="polygon2" />
  </g>
  <!-- Back-->
  <g
     transform="translate(257.917322835, 22.5) "
     id="g8">
    <polygon
       style="stroke:#000000; fill:none; stroke-width:0.9"
       points="0, 0 28.417322834999993, 0 28.417322834999993, 8.37 53.999999999999986, 8.37 53.999999999999986, 0 73.41732283499998, 0 73.41732283499998, 8.37 89.99999999999999, 8.37 89.99999999999999, 0 109.41732283499998, 0 109.41732283499998, 8.37 125.99999999999999, 8.37 125.99999999999999, 0 145.417322835, 0 145.417322835, 8.37 162, 8.37 162, 0 181.417322835, 0 181.417322835, 8.37 206.99999999999997, 8.37 206.99999999999997, 0 235.417322835, 0 235.417322835, 19.417322835 227.047322835, 19.417322835 227.047322835, 36 235.417322835, 36 235.417322835, 55.417322835 227.047322835, 55.417322835 227.047322835, 72 235.417322835, 72 235.41732283499996, 91.41732283500001 206.99999999999997, 91.41732283500001 206.99999999999997, 83.047322835 181.417322835, 83.047322835 181.417322835, 91.41732283500001 162, 91.41732283500001 162, 83.047322835 145.417322835, 83.047322835 145.417322835, 91.41732283500001 125.99999999999999, 91.41732283500001 125.99999999999999, 83.047322835 109.41732283499998, 83.047322835 109.41732283499998, 91.41732283500001 89.99999999999999, 91.41732283500001 89.99999999999999, 83.047322835 73.41732283499998, 83.047322835 73.41732283499998, 91.41732283500001 53.999999999999986, 91.41732283500001 53.999999999999986, 83.047322835 28.417322834999993, 83.047322835 28.417322834999993, 91.41732283500001 0, 91.417322835 0, 72 8.37, 72 8.37, 55.417322835 0, 55.417322835 0, 36 8.37, 36 8.37, 19.417322835 0, 19.417322835 "
       id="polygon6" />
  </g>
  <!-- Left-->
  <g
     transform="rotate(90,326.83465,349.33464)"
     id="g12">
    <polygon
       style="fill:none;stroke:#000000;stroke-width:0.89999998"
       points="55.8,0 75.217323,0 75.217323,8.37 91.8,8.37 91.8,0 111.21732,0 111.21732,8.37 127.8,8.37 127.8,0 147.21732,0 147.21732,8.37 163.8,8.37 163.8,0 183.21732,0 183.21732,8.37 199.8,8.37 199.8,0 219.21732,0 219.21732,8.37 235.8,8.37 235.8,0 255.21732,0 255.21732,8.37 281.7,8.37 281.7,0 302.64732,0 302.64732,18 311.01732,18 311.01732,37.417323 302.64732,37.417323 302.64732,54 311.01732,54 311.01732,73.417323 302.64732,73.417323 302.64732,91.417323 281.7,91.417323 281.7,83.047323 255.21732,83.047323 255.21732,91.417323 235.8,91.417323 235.8,83.047323 219.21732,83.047323 219.21732,91.417323 199.8,91.417323 199.8,83.047323 183.21732,83.047323 183.21732,91.417323 163.8,91.417323 163.8,83.047323 147.21732,83.047323 147.21732,91.417323 127.8,91.417323 127.8,83.047323 111.21732,83.047323 111.21732,91.417323 91.8,91.417323 91.8,83.047323 75.217323,83.047323 75.217323,91.417323 55.8,91.417323 55.8,83.047323 29.317323,83.047323 29.317323,91.417323 8.37,91.417323 8.37,73.417323 0,73.417323 0,54 8.37,54 8.37,37.417323 0,37.417323 0,18 8.37,18 8.37,0 29.317323,0 29.317323,8.37 55.8,8.37 "
       id="polygon10" />
  </g>
  <!-- Right-->
  <g
     transform="rotate(90,281.12599,303.62598)"
     id="g16">
    <polygon
       style="fill:none;stroke:#000000;stroke-width:0.89999998"
       points="75.217323,8.37 91.8,8.37 91.8,0 111.21732,0 111.21732,8.37 127.8,8.37 127.8,0 147.21732,0 147.21732,8.37 163.8,8.37 163.8,0 183.21732,0 183.21732,8.37 199.8,8.37 199.8,0 219.21732,0 219.21732,8.37 235.8,8.37 235.8,0 255.21732,0 255.21732,8.37 281.7,8.37 281.7,0 302.64732,0 302.64732,18 311.01732,18 311.01732,37.417323 302.64732,37.417323 302.64732,54 311.01732,54 311.01732,73.417323 302.64732,73.417323 302.64732,91.417323 281.7,91.417323 281.7,83.047323 255.21732,83.047323 255.21732,91.417323 235.8,91.417323 235.8,83.047323 219.21732,83.047323 219.21732,91.417323 199.8,91.417323 199.8,83.047323 183.21732,83.047323 183.21732,91.417323 163.8,91.417323 163.8,83.047323 147.21732,83.047323 147.21732,91.417323 127.8,91.417323 127.8,83.047323 111.21732,83.047323 111.21732,91.417323 91.8,91.417323 91.8,83.047323 75.217323,83.047323 75.217323,91.417323 55.8,91.417323 55.8,83.047323 29.317323,83.047323 29.317323,91.417323 8.37,91.417323 8.37,73.417323 0,73.417323 0,54 8.37,54 8.37,37.417323 0,37.417323 0,18 8.37,18 8.37,0 29.317323,0 29.317323,8.37 55.8,8.37 55.8,0 75.217323,0 "
       id="polygon14" />
  </g>
  <!-- Top-->
  <g
     transform="translate(22.5, 113.91732283500001) "
     id="g20">
    <polygon
       style="stroke:#000000; fill:none; stroke-width:0.9"
       points="8.37, 8.37 26.999999999999993, 8.37 26.999999999999993, 0 55.417322834999986, 0 55.417322834999986, 8.37 71.99999999999999, 8.37 71.99999999999999, 0 91.41732283499998, 0 91.41732283499998, 8.37 107.99999999999999, 8.37 107.99999999999999, 0 127.41732283499998, 0 127.41732283499998, 8.37 144, 8.37 144, 0 163.417322835, 0 163.417322835, 8.37 180, 8.37 180, 0 208.41732283499996, 0 208.41732283499996, 8.37 227.047322835, 8.37 227.047322835, 27.899999999999995 235.417322835, 27.899999999999995 235.417322835, 57.21732283499999 227.047322835, 57.21732283499999 227.047322835, 73.79999999999998 235.417322835, 73.79999999999998 235.417322835, 93.21732283499998 227.047322835, 93.21732283499998 227.047322835, 109.79999999999998 235.417322835, 109.79999999999998 235.417322835, 129.21732283499998 227.047322835, 129.21732283499998 227.047322835, 145.79999999999998 235.417322835, 145.79999999999998 235.417322835, 165.21732283499998 227.047322835, 165.21732283499998 227.047322835, 181.79999999999998 235.417322835, 181.79999999999998 235.417322835, 201.21732283499998 227.047322835, 201.21732283499998 227.047322835, 217.79999999999998 235.417322835, 217.79999999999998 235.417322835, 237.21732283499998 227.047322835, 237.21732283499998 227.047322835, 253.79999999999998 235.417322835, 253.79999999999998 235.417322835, 283.117322835 227.047322835, 283.117322835 227.04732283499996, 302.64732283499995 208.41732283499996, 302.64732283499995 208.41732283499996, 311.01732283499996 180, 311.01732283499996 180, 302.64732283499995 163.417322835, 302.64732283499995 163.417322835, 311.01732283499996 144, 311.01732283499996 144, 302.64732283499995 127.41732283499998, 302.64732283499995 127.41732283499998, 311.01732283499996 107.99999999999999, 311.01732283499996 107.99999999999999, 302.64732283499995 91.41732283499998, 302.64732283499995 91.41732283499998, 311.01732283499996 71.99999999999999, 311.01732283499996 71.99999999999999, 302.64732283499995 55.417322834999986, 302.64732283499995 55.417322834999986, 311.01732283499996 26.999999999999993, 311.01732283499996 26.999999999999993, 302.64732283499995 8.37, 302.64732283499995 8.37, 283.117322835 0, 283.117322835 0, 253.79999999999998 8.37, 253.79999999999998 8.37, 237.21732283499998 0, 237.21732283499998 0, 217.79999999999998 8.37, 217.79999999999998 8.37, 201.21732283499998 0, 201.21732283499998 0, 181.79999999999998 8.37, 181.79999999999998 8.37, 165.21732283499998 0, 165.21732283499998 0, 145.79999999999998 8.37, 145.79999999999998 8.37, 129.21732283499998 0, 129.21732283499998 0, 109.79999999999998 8.37, 109.79999999999998 8.37, 93.21732283499998 0, 93.21732283499998 0, 73.79999999999998 8.37, 73.79999999999998 8.37, 57.21732283499999 0, 57.21732283499999 0, 27.899999999999995 8.37, 27.899999999999995 "
       id="polygon18" />
  </g>
  <!-- Bottom-->
  <g
     transform="translate(257.917322835, 113.91732283500001) "
     id="g24">
    <polygon
       style="stroke:#000000; fill:none; stroke-width:0.9"
       points="8.37, 8.37 26.999999999999993, 8.37 26.999999999999993, 0 55.417322834999986, 0 55.417322834999986, 8.37 71.99999999999999, 8.37 71.99999999999999, 0 91.41732283499998, 0 91.41732283499998, 8.37 107.99999999999999, 8.37 107.99999999999999, 0 127.41732283499998, 0 127.41732283499998, 8.37 144, 8.37 144, 0 163.417322835, 0 163.417322835, 8.37 180, 8.37 180, 0 208.41732283499996, 0 208.41732283499996, 8.37 227.047322835, 8.37 227.047322835, 27.899999999999995 235.417322835, 27.899999999999995 235.417322835, 57.21732283499999 227.047322835, 57.21732283499999 227.047322835, 73.79999999999998 235.417322835, 73.79999999999998 235.417322835, 93.21732283499998 227.047322835, 93.21732283499998 227.047322835, 109.79999999999998 235.417322835, 109.79999999999998 235.417322835, 129.21732283499998 227.047322835, 129.21732283499998 227.047322835, 145.79999999999998 235.417322835, 145.79999999999998 235.417322835, 165.21732283499998 227.047322835, 165.21732283499998 227.047322835, 181.79999999999998 235.417322835, 181.79999999999998 235.417322835, 201.21732283499998 227.047322835, 201.21732283499998 227.047322835, 217.79999999999998 235.417322835, 217.79999999999998 235.417322835, 237.21732283499998 227.047322835, 237.21732283499998 227.047322835, 253.79999999999998 235.417322835, 253.79999999999998 235.417322835, 283.117322835 227.047322835, 283.117322835 227.04732283499996, 302.64732283499995 208.41732283499996, 302.64732283499995 208.41732283499996, 311.01732283499996 180, 311.01732283499996 180, 302.64732283499995 163.417322835, 302.64732283499995 163.417322835, 311.01732283499996 144, 311.01732283499996 144, 302.64732283499995 127.41732283499998, 302.64732283499995 127.41732283499998, 311.01732283499996 107.99999999999999, 311.01732283499996 107.99999999999999, 302.64732283499995 91.41732283499998, 302.64732283499995 91.41732283499998, 311.01732283499996 71.99999999999999, 311.01732283499996 71.99999999999999, 302.64732283499995 55.417322834999986, 302.64732283499995 55.417322834999986, 311.01732283499996 26.999999999999993, 311.01732283499996 26.999999999999993, 302.64732283499995 8.37, 302.64732283499995 8.37, 283.117322835 0, 283.117322835 0, 253.79999999999998 8.37, 253.79999999999998 8.37, 237.21732283499998 0, 237.21732283499998 0, 217.79999999999998 8.37, 217.79999999999998 8.37, 201.21732283499998 0, 201.21732283499998 0, 181.79999999999998 8.37, 181.79999999999998 8.37, 165.21732283499998 0, 165.21732283499998 0, 145.79999999999998 8.37, 145.79999999999998 8.37, 129.21732283499998 0, 129.21732283499998 0, 109.79999999999998 8.37, 109.79999999999998 8.37, 93.21732283499998 0, 93.21732283499998 0, 73.79999999999998 8.37, 73.79999999999998 8.37, 57.21732283499999 0, 57.21732283499999 0, 27.899999999999995 8.37, 27.899999999999995 "
       id="polygon22" />
  </g>
  <ellipse
     style="fill:none;stroke:#000000;stroke-width:0.87974918"
     id="path40"
     cx="225.17999"
     cy="331.60159"
     rx="5.2301254"
     ry="5.230125" />
  <ellipse
     style="fill:none;stroke:#000000;stroke-width:0.87974918"
     id="path40-8"
     cx="54.179993"
     cy="327.10159"
     rx="5.2301254"
     ry="5.230125" />
  <ellipse
     style="fill:none;stroke:#000000;stroke-width:0.87974918"
     id="path40-8-4"
     cx="108.17999"
     cy="147.10159"
     rx="5.2301254"
     ry="5.230125" />
  <ellipse
     style="fill:none;stroke:#000000;stroke-width:0.87974918"
     id="path40-8-47"
     cx="207.17999"
     cy="147.10159"
     rx="5.2301254"
     ry="5.230125" />
  <rect
     style="fill:none;stroke:#000000;stroke-width:1.09418929"
     id="rect185"
     width="42.416782"
     height="52.717342"
     x="80.244186"
     y="41.849983" />
  <rect
     style="fill:none;stroke:#000000;stroke-width:1.09418929"
     id="rect187"
     width="31.500019"
     height="52.717342"
     x="191.06995"
     y="41.849983" />
  <rect
     style="fill:none;stroke:#000000;stroke-width:0.9375"
     id="rect230"
     width="24.320532"
     height="204.62164"
     x="277.43701"
     y="137.62944" />
  <rect
     style="fill:none;stroke:#000000;stroke-width:0.9375"
     id="rect230-8"
     width="24.320522"
     height="204.62164"
     x="450.43652"
     y="137.59137" />
</svg>
